HIERARCHY
ROOT Hips
{
    OFFSET   0.000000   0.000000   0.000000
    CHANNELS 6 Xposition Yposition Zposition Zrotation Xrotation Yrotation
    JOINT Chest
    {
        OFFSET   0.000000   8.007240   0.000000
        CHANNELS 3 Zrotation Xrotation Yrotation
        JOINT Chest2
        {
            OFFSET   0.000000  22.077100   0.000000
            CHANNELS 3 Zrotation Xrotation Yrotation
            JOINT Neck
            {
                OFFSET   0.000000  23.254800   0.000000
                CHANNELS 3 Zrotation Xrotation Yrotation
                JOINT Head
                {
                    OFFSET   0.000000  14.370000   1.956600
                    CHANNELS 3 Zrotation Xrotation Yrotation
                    End Site
                    {
                        OFFSET   0.000000  19.566000   0.000000
                    }
                }
            }
            JOINT LeftCollar
            {
                OFFSET   3.911900  19.017000  -0.467064
                CHANNELS 3 Zrotation Xrotation Yrotation
                JOINT LeftShoulder
                {
                    OFFSET  10.383700   0.000000   0.000000
                    CHANNELS 3 Zrotation Xrotation Yrotation
                    JOINT LeftElbow
                    {
                        OFFSET  26.662100   0.001476   0.000517
                        CHANNELS 3 Zrotation Xrotation Yrotation
                        JOINT LeftWrist
                        {
                            OFFSET  28.869000  -0.000025  -0.000106
                            CHANNELS 3 Zrotation Xrotation Yrotation
                            JOINT LeftFinger0
                            {
                                OFFSET   2.044660  -2.323460   3.252850
                                CHANNELS 3 Zrotation Xrotation Yrotation
                                JOINT LeftFinger01
                                {
                                    OFFSET   3.088130   0.000000   0.000000
                                    CHANNELS 3 Zrotation Xrotation Yrotation
                                    JOINT LeftFinger02
                                    {
                                        OFFSET   2.639460   0.000000   0.000000
                                        CHANNELS 3 Zrotation Xrotation Yrotation
                                        End Site
                                        {
                                            OFFSET   2.582190   0.000000   0.000000
                                        }
                                    }
                                }
                            }
                            JOINT LeftFinger1
                            {
                                OFFSET   8.364480   0.000000   3.252850
                                CHANNELS 3 Zrotation Xrotation Yrotation
                                JOINT LeftFinger11
                                {
                                    OFFSET   4.646930   0.000000   0.000000
                                    CHANNELS 3 Zrotation Xrotation Yrotation
                                    JOINT LeftFinger12
                                    {
                                        OFFSET   2.323460   0.000000   0.000000
                                        CHANNELS 3 Zrotation Xrotation Yrotation
                                        End Site
                                        {
                                            OFFSET   2.273050   0.000000   0.000000
                                        }
                                    }
                                }
                            }
                            JOINT LeftFinger2
                            {
                                OFFSET   8.364490   0.000015   1.078090
                                CHANNELS 3 Zrotation Xrotation Yrotation
                                JOINT LeftFinger21
                                {
                                    OFFSET   5.111620   0.000000   0.000000
                                    CHANNELS 3 Zrotation Xrotation Yrotation
                                    JOINT LeftFinger22
                                    {
                                        OFFSET   2.788160   0.000016   0.000000
                                        CHANNELS 3 Zrotation Xrotation Yrotation
                                        End Site
                                        {
                                            OFFSET   2.727660   0.000000   0.000000
                                        }
                                    }
                                }
                            }
                            JOINT LeftFinger3
                            {
                                OFFSET   7.899780   0.000017  -1.078090
                                CHANNELS 3 Zrotation Xrotation Yrotation
                                JOINT LeftFinger31
                                {
                                    OFFSET   4.646930   0.000000   0.000000
                                    CHANNELS 3 Zrotation Xrotation Yrotation
                                    JOINT LeftFinger32
                                    {
                                        OFFSET   2.323470   0.000000   0.000000
                                        CHANNELS 3 Zrotation Xrotation Yrotation
                                        End Site
                                        {
                                            OFFSET   2.273050   0.000000   0.000000
                                        }
                                    }
                                }
                            }
                            JOINT LeftFinger4
                            {
                                OFFSET   7.435090   0.000000  -3.252850
                                CHANNELS 3 Zrotation Xrotation Yrotation
                                JOINT LeftFinger41
                                {
                                    OFFSET   3.717550   0.000000   0.000000
                                    CHANNELS 3 Zrotation Xrotation Yrotation
                                    JOINT LeftFinger42
                                    {
                                        OFFSET   1.858770   0.000000   0.000000
                                        CHANNELS 3 Zrotation Xrotation Yrotation
                                        End Site
                                        {
                                            OFFSET   1.818440   0.000000   0.000000
                                        }
                                    }
                                }
                            }
                        }
                    }
                }
            }
            JOINT RightCollar
            {
                OFFSET  -3.911900  19.017000  -0.467063
                CHANNELS 3 Zrotation Xrotation Yrotation
                JOINT RightShoulder
                {
                    OFFSET -10.383700   0.000019   0.000000
                    CHANNELS 3 Zrotation Xrotation Yrotation
                    JOINT RightElbow
                    {
                        OFFSET -26.662100   0.001175   0.000102
                        CHANNELS 3 Zrotation Xrotation Yrotation
                        JOINT RightWrist
                        {
                            OFFSET -28.869000   0.000016  -0.000079
                            CHANNELS 3 Zrotation Xrotation Yrotation
                            JOINT RightFinger0
                            {
                                OFFSET  -2.044660  -2.323490   3.252850
                                CHANNELS 3 Zrotation Xrotation Yrotation
                                JOINT RightFinger01
                                {
                                    OFFSET  -3.088140   0.000000   0.000000
                                    CHANNELS 3 Zrotation Xrotation Yrotation
                                    JOINT RightFinger02
                                    {
                                        OFFSET  -2.639460   0.000000   0.000000
                                        CHANNELS 3 Zrotation Xrotation Yrotation
                                        End Site
                                        {
                                            OFFSET  -2.582190   0.000000   0.000000
                                        }
                                    }
                                }
                            }
                            JOINT RightFinger1
                            {
                                OFFSET  -8.364480   0.000000   3.252850
                                CHANNELS 3 Zrotation Xrotation Yrotation
                                JOINT RightFinger11
                                {
                                    OFFSET  -4.646930   0.000000   0.000000
                                    CHANNELS 3 Zrotation Xrotation Yrotation
                                    JOINT RightFinger12
                                    {
                                        OFFSET  -2.323470   0.000000   0.000000
                                        CHANNELS 3 Zrotation Xrotation Yrotation
                                        End Site
                                        {
                                            OFFSET  -2.273050   0.000000   0.000000
                                        }
                                    }
                                }
                            }
                            JOINT RightFinger2
                            {
                                OFFSET  -8.364480   0.000000   1.078090
                                CHANNELS 3 Zrotation Xrotation Yrotation
                                JOINT RightFinger21
                                {
                                    OFFSET  -5.111620   0.000000   0.000000
                                    CHANNELS 3 Zrotation Xrotation Yrotation
                                    JOINT RightFinger22
                                    {
                                        OFFSET  -2.788160   0.000000   0.000000
                                        CHANNELS 3 Zrotation Xrotation Yrotation
                                        End Site
                                        {
                                            OFFSET  -2.727660   0.000000   0.000000
                                        }
                                    }
                                }
                            }
                            JOINT RightFinger3
                            {
                                OFFSET  -7.899780   0.000000  -1.078090
                                CHANNELS 3 Zrotation Xrotation Yrotation
                                JOINT RightFinger31
                                {
                                    OFFSET  -4.646930   0.000000   0.000000
                                    CHANNELS 3 Zrotation Xrotation Yrotation
                                    JOINT RightFinger32
                                    {
                                        OFFSET  -2.323470   0.000000   0.000000
                                        CHANNELS 3 Zrotation Xrotation Yrotation
                                        End Site
                                        {
                                            OFFSET  -2.273050   0.000000   0.000000
                                        }
                                    }
                                }
                            }
                            JOINT RightFinger4
                            {
                                OFFSET  -7.435090   0.000000  -3.252850
                                CHANNELS 3 Zrotation Xrotation Yrotation
                                JOINT RightFinger41
                                {
                                    OFFSET  -3.717550   0.000000   0.000000
                                    CHANNELS 3 Zrotation Xrotation Yrotation
                                    JOINT RightFinger42
                                    {
                                        OFFSET  -1.858770   0.000000   0.000000
                                        CHANNELS 3 Zrotation Xrotation Yrotation
                                        End Site
                                        {
                                            OFFSET  -1.818440   0.000000   0.000000
                                        }
                                    }
                                }
                            }
                        }
                    }
                }
            }
        }
    }
    JOINT LeftHip
    {
        OFFSET   9.783040   0.000000   0.000000
        CHANNELS 3 Zrotation Xrotation Yrotation
        JOINT LeftKnee
        {
            OFFSET   0.000032 -41.789100  -0.002222
            CHANNELS 3 Zrotation Xrotation Yrotation
            JOINT LeftAnkle
            {
                OFFSET   0.000087 -41.133200  -0.000135
                CHANNELS 3 Zrotation Xrotation Yrotation
                JOINT LeftToe
                {
                    OFFSET   0.000000  -6.358960  14.674500
                    CHANNELS 3 Zrotation Xrotation Yrotation
                    End Site
                    {
                        OFFSET   0.000000   0.000000   3.913200
                    }
                }
            }
        }
    }
    JOINT RightHip
    {
        OFFSET  -9.783040   0.000000   0.000000
        CHANNELS 3 Zrotation Xrotation Yrotation
        JOINT RightKnee
        {
            OFFSET   0.000047 -41.789100  -0.000896
            CHANNELS 3 Zrotation Xrotation Yrotation
            JOINT RightAnkle
            {
                OFFSET  -0.000117 -41.133300  -0.000248
                CHANNELS 3 Zrotation Xrotation Yrotation
                JOINT RightToe
                {
                    OFFSET   0.000000  -6.358970  14.674500
                    CHANNELS 3 Zrotation Xrotation Yrotation
                    End Site
                    {
                        OFFSET   0.000000   0.000000   3.913200
                    }
                }
            }
        }
    }
}
MOTION
Frames: 4
Frame Time:   0.016667
  0.235133  89.485800   1.415360  -3.246070  -8.301450  -4.461590   1.856120   3.886720   1.675760   3.609880   7.824250   3.235480   0.962494  -1.546360   0.021296   1.584190  -3.133860   9.025450  -0.061445  -0.785994  -3.929390 -49.612100 -10.821900 -70.931900  -3.740820 -24.167700 -108.439000 -15.984200  31.366400  10.660100  59.039500  54.332900 -108.292000   4.286460  -0.000683   0.000000   7.143220   0.001602  -0.000093 -56.331700   6.005210  -3.993730 -46.260300  -0.011707   0.005141 -34.695200  -0.006160  -0.006438 -17.414900   2.160750  -6.876170 -17.544400  -0.009841   0.014586 -11.684600  -0.008452   0.008122  -4.764300  -0.782884   9.089330  -4.832390   0.001336   0.011564  -3.218380  -0.000912   0.007715   1.959370   0.917766  26.263900   0.000000   0.000803  -0.000130  -0.000000   0.000586   0.000000  -3.218650  -4.619170   8.974160  38.459900 -14.030700  72.451600 -21.509000 -32.009600  85.277400  31.835000  13.213800  21.410500 -59.046900  54.335100 108.295000 -15.693300  -0.004491  -0.001137 -12.846700  -0.002778   0.003079  40.305000   4.900720   5.758820  33.175300   0.001442  -0.001581  23.370900  -0.000104  -0.001071  16.361600   0.946729   3.236120  16.382500   0.006186   0.003034  10.910700   0.003750  -0.001234   2.524280  -0.643477 -14.266000   2.601600   0.004199   0.002375   1.732650   0.001307   0.004179   6.400300  -3.768000 -30.356400  11.129000  -0.002157   0.009490   7.411890  -0.009956  -0.008719   3.360400  12.391400   3.943310   0.988422   0.763814   5.945880  -2.916400  -3.569690  13.754700  -0.000000   0.000000   0.000000   1.643070   7.272370  -5.684680   1.444790   4.347520  -3.517710  -5.963690  -2.181260  -1.343890  -0.000000   0.000000   0.000000
  0.233864  89.483700   1.415450  -3.240470  -8.291490  -4.428010   1.839620   3.855060   1.688030   3.576840   7.760950   3.261550   0.985266  -1.538290   0.021076   1.621810  -3.117430   9.005220  -0.015623  -0.724375  -3.826810 -50.001300 -10.901200 -70.768700  -3.423120 -23.836900 -109.106000 -14.842500  34.246500  10.524200  59.039600  54.332900 -108.292000   3.037700  -0.005442   0.044170   6.518850   0.001585   0.025551 -55.454900   5.987500  -4.089530 -45.545200  -0.000249   0.004494 -34.158900  -0.000233   0.000075 -15.734300   1.982330  -6.967940 -15.852000   0.011768  -0.012690 -10.557500   0.009195  -0.006911  -3.385070  -0.503264   8.209990  -3.421660   0.001577  -0.014779  -2.278840  -0.000857  -0.009708   5.944970   2.699500  25.135200   0.000000   0.000870  -0.000370   0.000000   0.000652  -0.000177  -3.199900  -4.597170   8.834350  38.398200 -14.436900  72.390500 -21.315700 -32.045300  85.577800  32.295200  14.082100  20.903300 -59.046900  54.335100 108.295000 -15.693200  -0.004498  -0.001151 -12.846700  -0.002791   0.003107  39.888100   4.575460   5.459090  32.800100   0.001235  -0.001600  23.041100  -0.000170  -0.001025  16.159900   0.790200   2.715230  16.153500   0.006113   0.002932  10.758300   0.003595  -0.001220   2.317390  -0.601148 -14.572300   2.393130   0.004279   0.002357   1.593820   0.001204   0.004140   6.235080  -3.710420 -30.685000  10.855300  -0.007151   0.009654   7.229580  -0.010736  -0.008759   3.367240  12.396800   3.928620   0.985096   0.720060   5.939310  -2.918360  -3.540090  13.743600   0.000000   0.000000   0.000000   1.649090   7.268730  -5.680830   1.440400   4.324710  -3.541210  -5.963220  -2.168940  -1.353770  -0.000000   0.000000   0.000000
  0.230796  89.480200   1.415490  -3.236030  -8.287890  -4.397340   1.818470   3.819210   1.711310   3.533490   7.689310   3.311200   1.010390  -1.512220   0.020831   1.662840  -3.064310   8.969060   0.050858  -0.672812  -3.722570 -50.455800 -10.930700 -70.611100  -3.004440 -23.388800 -109.711000 -13.058100  37.524200   9.976350  59.039600  54.332900 -108.292000   2.137010  -0.010201   0.088340   6.068510   0.001569   0.044472 -54.962800   5.928090  -4.138630 -45.140500   0.007398   0.001961 -33.855400   0.003766   0.004351 -14.537300   1.850280  -7.026950 -14.645500   0.030478  -0.037256  -9.753940   0.024612  -0.020533  -2.385940  -0.298536   7.312910  -2.403330   0.001819  -0.038015  -1.600640  -0.000792  -0.025071   8.881130   4.006970  24.069400   0.000000   0.000941  -0.000615   0.000000   0.000718  -0.000363  -3.185570  -4.559210   8.658340  38.583700 -14.814300  72.320900 -20.964200 -32.081700  86.046900  32.334000  15.534800  20.083400 -59.047000  54.335100 108.295000 -15.693200  -0.004501  -0.001167 -12.846700  -0.002804   0.003133  39.443500   4.188320   5.080410  32.399900   0.001024  -0.001620  22.702600  -0.000242  -0.000986  15.974600   0.594451   2.051630  15.959100   0.006045   0.002823  10.628800   0.003434  -0.001207   2.124280  -0.558039 -14.743000   2.196930   0.004357   0.002354   1.463160   0.001100   0.004101   6.030440  -3.646920 -31.179300  10.527300  -0.011454   0.009803   7.011170  -0.011115  -0.008799   3.373530  12.402100   3.914200   0.985188   0.676303   5.934760  -2.920270  -3.510480  13.733000  -0.000000   0.000000   0.000000   1.658140   7.265680  -5.679190   1.431740   4.313080  -3.562890  -5.962480  -2.158260  -1.361640  -0.000000   0.000000   0.000000
  0.225916  89.473500   1.414610  -3.236480  -8.290660  -4.370500   1.792850   3.774160   1.740410   3.481330   7.599320   3.371020   1.033390  -1.463020   0.020524   1.700630  -2.963910   8.925810   0.154577  -0.628764  -3.590420 -50.997000 -10.875300 -70.476200  -2.439430 -22.797100 -110.144000 -10.848400  40.480800   9.165530  59.039600  54.332900 -108.292000   4.185250  -0.009181   0.075058   7.092630   0.001539   0.037800 -56.092600   5.688740  -3.816520 -46.046700  -0.011115  -0.004934 -34.535000  -0.005159  -0.007187 -15.380400   1.846110  -6.676630 -15.485400   0.020900  -0.026032 -10.313300   0.016870  -0.014486  -3.226590  -0.427583   7.176730  -3.258960   0.002056  -0.026676  -2.170480  -0.000726  -0.017538   6.540360   2.928480  23.895900   0.000000   0.001021  -0.000869   0.000000   0.000781  -0.000523  -3.189350  -4.491790   8.438010  38.979900 -15.089000  72.218200 -20.393600 -31.991100  86.767800  31.696000  17.790700  18.739100 -59.047100  54.335200 108.295000 -15.693200  -0.004516  -0.001167 -12.846700  -0.002808   0.003159  39.060100   3.658540   4.495850  32.045100   0.000805  -0.001641  22.429300  -0.000315  -0.000950  15.910800   0.316778   1.093440  15.905800   0.005990   0.002705  10.593300   0.003250  -0.001196   2.045350  -0.535823 -14.728000   2.115190   0.004426   0.002694   1.408720   0.000996   0.004064   5.705380  -3.565880 -31.955800  10.026800  -0.007463   0.009935   6.677890  -0.006919  -0.008840   3.385410  12.374100   3.902140   0.986847   0.723661   5.926800  -2.927710  -3.525350  13.723100   0.000000   0.000000  -0.000000   1.671730   7.261920  -5.680480   1.421740   4.313230  -3.584590  -5.961060  -2.150910  -1.365230  -0.000000   0.000000   0.000000
